P3
# Created by GIMP version 2.10.38 PNM plug-in
16 16
255
16
16
16
63
1
63
67
1
67
71
1
71
75
1
75
78
1
78
82
1
82
86
1
86
90
1
90
93
1
93
97
1
97
101
1
101
105
1
105
108
1
108
112
1
112
116
1
116
120
1
120
123
1
123
127
1
127
131
1
131
135
1
135
138
1
138
142
1
142
146
1
146
150
1
150
153
1
153
157
1
157
161
1
161
165
1
165
168
1
168
172
1
172
176
1
176
60
60
60
60
60
60
62
62
62
63
63
63
64
64
64
66
66
66
67
67
67
68
68
68
69
69
69
71
71
71
72
72
72
73
73
73
75
75
75
75
75
75
77
77
77
78
78
78
79
79
79
81
81
81
82
82
82
83
83
83
84
84
84
86
86
86
87
87
87
88
88
88
90
90
90
90
90
90
92
92
92
93
93
93
94
94
94
96
96
96
97
97
97
98
98
98
99
99
99
101
101
101
102
102
102
103
103
103
105
105
105
105
105
105
107
107
107
108
108
108
109
109
109
111
111
111
112
112
112
113
113
113
114
114
114
116
116
116
117
117
117
118
118
118
120
120
120
120
120
120
122
122
122
123
123
123
124
124
124
126
126
126
127
127
127
128
128
128
129
129
129
131
131
131
132
132
132
133
133
133
135
135
135
135
135
135
137
137
137
138
138
138
139
139
139
141
141
141
142
142
142
143
143
143
144
144
144
146
146
146
147
147
147
148
148
148
150
150
150
150
150
150
152
152
152
153
153
153
154
154
154
156
156
156
157
157
157
158
158
158
159
159
159
161
161
161
162
162
162
163
163
163
165
165
165
165
165
165
167
167
167
168
168
168
169
169
169
171
171
171
172
172
172
173
173
173
174
174
174
176
176
176
177
177
177
178
178
178
1
60
1
1
60
1
1
61
1
1
62
1
1
63
1
1
64
1
1
65
1
1
66
1
1
67
1
1
68
1
1
69
1
1
69
1
1
71
1
1
72
1
1
72
1
1
73
1
1
75
1
1
75
1
1
76
1
1
77
1
1
78
1
1
79
1
1
80
1
1
81
1
1
82
1
1
83
1
1
84
1
1
84
1
1
86
1
1
87
1
1
87
1
1
88
1
1
90
1
1
90
1
1
91
1
1
92
1
1
93
1
1
94
1
1
95
1
1
96
1
1
97
1
1
98
1
1
99
1
1
99
1
1
101
1
1
102
1
1
102
1
1
103
1
1
105
1
1
105
1
1
106
1
1
107
1
1
108
1
1
109
1
1
110
1
1
111
1
1
112
1
1
113
1
1
114
1
1
114
1
1
116
1
1
117
1
1
117
1
1
118
1
1
120
1
1
120
1
1
121
1
1
122
1
1
123
1
1
124
1
1
125
1
1
126
1
1
127
1
1
128
1
1
129
1
1
129
1
1
131
1
1
132
1
1
132
1
1
133
1
1
135
1
1
135
1
1
136
1
1
137
1
1
138
1
1
139
1
1
140
1
1
141
1
1
142
1
1
143
1
1
144
1
1
144
1
1
146
1
1
147
1
1
147
1
1
148
1
1
150
1
1
150
1
1
151
1
1
152
1
1
153
1
1
154
1
1
155
1
1
156
1
1
157
1
1
158
1
1
159
1
1
159
1
1
161
1
1
162
1
1
162
1
1
163
1
1
165
1
1
165
1
1
166
1
1
167
1
1
168
1
1
169
1
1
170
1
1
171
1
1
172
1
1
173
1
1
174
1
1
174
1
1
176
1
1
177
1
1
177
1
1
178
1
