/* XPM */
static char * Grey_xpm[] = {
"16 16 191 2",
"  	c #010101",
". 	c #020202",
"+ 	c #030303",
"@ 	c #040404",
"# 	c #050505",
"$ 	c #060606",
"% 	c #070707",
"& 	c #080808",
"* 	c #090909",
"= 	c #0A0A0A",
"- 	c #0B0B0B",
"; 	c #0C0C0C",
"> 	c #0D0D0D",
", 	c #0E0E0E",
"' 	c #0F0F0F",
") 	c #101010",
"! 	c #111111",
"~ 	c #121212",
"{ 	c #131313",
"] 	c #141414",
"^ 	c #151515",
"/ 	c #161616",
"( 	c #171717",
"_ 	c #181818",
": 	c #191919",
"< 	c #1A1A1A",
"[ 	c #1B1B1B",
"} 	c #1C1C1C",
"| 	c #1D1D1D",
"1 	c #1E1E1E",
"2 	c #1F1F1F",
"3 	c #202020",
"4 	c #212121",
"5 	c #222222",
"6 	c #232323",
"7 	c #242424",
"8 	c #252525",
"9 	c #262626",
"0 	c #272727",
"a 	c #282828",
"b 	c #292929",
"c 	c #2A2A2A",
"d 	c #2B2B2B",
"e 	c #2C2C2C",
"f 	c #2D2D2D",
"g 	c #2E2E2E",
"h 	c #2F2F2F",
"i 	c #303030",
"j 	c #313131",
"k 	c #323232",
"l 	c #333333",
"m 	c #343434",
"n 	c #353535",
"o 	c #363636",
"p 	c #373737",
"q 	c #383838",
"r 	c #393939",
"s 	c #3A3A3A",
"t 	c #3B3B3B",
"u 	c #3C3C3C",
"v 	c #3D3D3D",
"w 	c #3E3E3E",
"x 	c #3F3F3F",
"y 	c #404040",
"z 	c #414141",
"A 	c #424242",
"B 	c #434343",
"C 	c #444444",
"D 	c #454545",
"E 	c #464646",
"F 	c #474747",
"G 	c #484848",
"H 	c #494949",
"I 	c #4A4A4A",
"J 	c #4B4B4B",
"K 	c #4C4C4C",
"L 	c #4D4D4D",
"M 	c #4E4E4E",
"N 	c #4F4F4F",
"O 	c #505050",
"P 	c #515151",
"Q 	c #525252",
"R 	c #535353",
"S 	c #545454",
"T 	c #555555",
"U 	c #565656",
"V 	c #575757",
"W 	c #585858",
"X 	c #595959",
"Y 	c #5A5A5A",
"Z 	c #5B5B5B",
"` 	c #5C5C5C",
" .	c #5D5D5D",
"..	c #5E5E5E",
"+.	c #5F5F5F",
"@.	c #606060",
"#.	c #616161",
"$.	c #626262",
"%.	c #636363",
"&.	c #646464",
"*.	c #656565",
"=.	c #666666",
"-.	c #676767",
";.	c #686868",
">.	c #696969",
",.	c #6A6A6A",
"'.	c #6B6B6B",
").	c #6C6C6C",
"!.	c #6D6D6D",
"~.	c #6E6E6E",
"{.	c #6F6F6F",
"].	c #707070",
"^.	c #717171",
"/.	c #727272",
"(.	c #737373",
"_.	c #747474",
":.	c #757575",
"<.	c #767676",
"[.	c #777777",
"}.	c #787878",
"|.	c #797979",
"1.	c #7A7A7A",
"2.	c #7B7B7B",
"3.	c #7C7C7C",
"4.	c #7D7D7D",
"5.	c #7E7E7E",
"6.	c #7F7F7F",
"7.	c #808080",
"8.	c #818181",
"9.	c #828282",
"0.	c #838383",
"a.	c #848484",
"b.	c #858585",
"c.	c #868686",
"d.	c #878787",
"e.	c #888888",
"f.	c #898989",
"g.	c #8A8A8A",
"h.	c #8B8B8B",
"i.	c #8C8C8C",
"j.	c #8D8D8D",
"k.	c #8E8E8E",
"l.	c #8F8F8F",
"m.	c #909090",
"n.	c #919191",
"o.	c #929292",
"p.	c #939393",
"q.	c #949494",
"r.	c #959595",
"s.	c #969696",
"t.	c #979797",
"u.	c #989898",
"v.	c #999999",
"w.	c #9A9A9A",
"x.	c #9B9B9B",
"y.	c #9C9C9C",
"z.	c #9D9D9D",
"A.	c #9E9E9E",
"B.	c #9F9F9F",
"C.	c #A0A0A0",
"D.	c #A1A1A1",
"E.	c #A2A2A2",
"F.	c #A3A3A3",
"G.	c #A4A4A4",
"H.	c #A5A5A5",
"I.	c #A6A6A6",
"J.	c #A7A7A7",
"K.	c #A8A8A8",
"L.	c #A9A9A9",
"M.	c #AAAAAA",
"N.	c #ABABAB",
"O.	c #ACACAC",
"P.	c #ADADAD",
"Q.	c #AEAEAE",
"R.	c #AFAFAF",
"S.	c #B0B0B0",
"T.	c #B1B1B1",
"U.	c #B2B2B2",
"V.	c #B3B3B3",
"W.	c #B4B4B4",
"X.	c #B5B5B5",
"Y.	c #B6B6B6",
"Z.	c #B7B7B7",
"`.	c #B8B8B8",
" +	c #B9B9B9",
".+	c #BABABA",
"++	c #BBBBBB",
"@+	c #BCBCBC",
"#+	c #BDBDBD",
"$+	c #BEBEBE",
"%+	c #BFBFBF",
"      . + + @ # $ $ % & * * = - ",
"; ; > , ' ' ) ! ~ ~ { ] ^ ^ / ( ",
"_ _ : < [ [ } | 1 1 2 3 4 4 5 6 ",
"7 7 8 9 0 0 a b c c d e f f g h ",
"i i j k l l m n o o p q r r s t ",
"u u v w x x y z A A B C D D E F ",
"G G H I J J K L M M N O P P Q R ",
"S S T U V V W X Y Y Z `  . ...+.",
"@.@.#.$.%.%.&.*.=.=.-.;.>.>.,.'.",
").).!.~.{.{.].^././.(._.:.:.<.[.",
"}.}.|.1.2.2.3.4.5.5.6.7.8.8.9.0.",
"a.a.b.c.d.d.e.f.g.g.h.i.j.j.k.l.",
"m.m.n.o.p.p.q.r.s.s.t.u.v.v.w.x.",
"y.y.z.A.B.B.C.D.E.E.F.G.H.H.I.J.",
"K.K.L.M.N.N.O.P.Q.Q.R.S.T.T.U.V.",
"W.W.X.Y.Z.Z.`. +.+.+++@+#+#+$+%+"};
