P3
# Created by GIMP version 2.10.38 PNM plug-in
16 16
255
191
1
1
191
1
1
191
1
1
191
2
1
191
3
1
191
3
1
191
4
1
191
5
1
191
6
1
191
6
1
191
7
1
191
8
1
191
9
1
191
9
1
191
10
1
191
11
1
191
12
1
191
12
1
191
13
1
191
14
1
191
15
1
191
15
1
191
16
1
191
17
1
191
18
1
191
18
1
191
19
1
191
20
1
191
21
1
191
21
1
191
22
1
191
23
1
191
24
1
191
24
1
191
25
1
191
26
1
191
27
1
191
27
1
191
28
1
191
29
1
191
30
1
191
30
1
191
31
1
191
32
1
191
33
1
191
33
1
191
34
1
191
35
1
191
36
1
191
36
1
191
37
1
191
38
1
191
39
1
191
39
1
191
40
1
191
41
1
191
42
1
191
42
1
191
43
1
191
44
1
191
45
1
191
45
1
191
46
1
191
47
1
191
48
1
191
48
1
191
49
1
191
50
1
191
51
1
191
51
1
191
52
1
191
53
1
191
54
1
191
54
1
191
55
1
191
56
1
191
57
1
191
57
1
191
58
1
191
59
1
191
60
1
191
60
1
191
61
1
191
62
1
191
63
1
191
63
1
191
64
1
191
65
1
191
66
1
191
66
1
191
67
1
191
68
1
191
69
1
191
69
1
191
70
1
191
71
1
191
72
1
191
72
1
191
73
1
191
74
1
191
75
1
191
75
1
191
76
1
191
77
1
191
78
1
191
78
1
191
79
1
191
80
1
191
81
1
191
81
1
191
82
1
191
83
1
191
84
1
191
84
1
191
85
1
191
86
1
191
87
1
191
87
1
191
88
1
191
89
1
191
90
1
191
90
1
191
91
1
191
92
1
191
93
1
191
93
1
191
94
1
191
95
1
191
96
1
191
96
1
191
97
1
191
98
1
191
99
1
191
99
1
191
100
1
191
101
1
191
102
1
191
102
1
191
103
1
191
104
1
191
105
1
191
105
1
191
106
1
191
107
1
191
108
1
191
108
1
191
109
1
191
110
1
191
111
1
191
111
1
191
112
1
191
113
1
191
114
1
191
114
1
191
115
1
191
116
1
191
117
1
191
117
1
191
118
1
191
119
1
191
120
1
191
120
1
191
121
1
191
122
1
191
123
1
191
123
1
191
124
1
191
125
1
191
126
1
191
126
1
191
127
1
191
128
1
191
129
1
191
129
1
191
130
1
191
131
1
191
132
1
191
132
1
191
133
1
191
134
1
191
135
1
191
135
1
191
136
1
191
137
1
191
138
1
191
138
1
191
139
1
191
140
1
191
141
1
191
141
1
191
142
1
191
143
1
191
144
1
191
144
1
191
145
1
191
146
1
191
147
1
191
147
1
191
148
1
191
149
1
191
150
1
191
150
1
191
151
1
191
152
1
191
153
1
191
153
1
191
154
1
191
155
1
191
156
1
191
156
1
191
157
1
191
158
1
191
159
1
191
159
1
191
160
1
191
161
1
191
162
1
191
162
1
191
163
1
191
164
1
191
165
1
191
165
1
191
166
1
191
167
1
191
168
1
191
168
1
191
169
1
191
170
1
191
171
1
191
171
1
191
172
1
191
173
1
191
174
1
191
174
1
191
175
1
191
176
1
191
177
1
191
177
1
191
178
1
191
179
1
191
180
1
191
180
1
191
181
1
191
182
1
191
183
1
191
183
1
191
184
1
191
185
1
191
186
1
191
186
1
191
187
1
191
188
1
191
189
1
191
189
1
191
190
1
191
191
1
