P3
# Created by GIMP version 2.10.38 PNM plug-in
16 16
255
7
62
117
7
62
117
8
63
117
8
63
118
9
63
118
9
63
118
9
64
119
9
64
119
10
65
120
10
65
120
11
66
120
11
66
120
12
66
120
12
66
120
12
67
121
13
68
121
13
68
122
14
69
122
14
69
122
15
69
123
15
69
123
15
70
123
15
70
123
16
71
123
16
71
124
17
72
124
18
72
124
18
72
125
18
72
125
18
73
126
19
74
126
19
74
126
20
75
126
20
75
126
21
75
127
21
75
127
21
76
127
22
76
128
22
77
128
23
77
128
23
78
129
24
78
129
24
78
129
24
78
129
24
79
129
25
80
130
25
80
130
26
81
131
26
81
131
27
81
131
27
81
132
27
82
132
28
82
132
28
83
132
29
83
132
29
84
133
30
84
133
30
84
133
30
84
134
30
85
134
31
86
135
32
86
135
32
87
135
33
87
135
33
87
135
33
87
135
33
88
136
34
88
136
34
89
137
35
89
137
35
90
137
36
90
138
36
90
138
36
90
138
37
91
138
37
92
138
38
92
139
38
93
139
39
93
139
39
93
140
39
93
140
39
94
141
40
94
141
40
95
141
41
95
141
42
96
141
42
96
142
42
96
142
42
96
142
43
97
143
43
98
143
44
98
143
44
99
144
45
99
144
45
99
144
45
99
144
45
100
144
46
100
145
47
101
145
47
101
146
48
102
146
48
102
146
48
102
147
48
102
147
49
103
147
49
104
147
50
104
147
50
105
148
51
105
148
51
105
148
51
105
149
52
106
149
52
106
150
53
107
150
53
107
150
54
108
150
54
108
150
54
108
150
54
108
151
55
109
151
55
110
152
56
110
152
57
111
152
57
111
153
57
111
153
57
111
153
58
112
153
58
112
153
59
113
154
59
113
154
60
114
154
60
114
155
60
114
155
60
114
156
61
115
156
62
116
156
62
116
156
63
117
156
63
117
157
63
117
157
63
117
157
64
118
158
64
118
158
65
119
158
65
119
159
66
120
159
66
120
159
66
120
159
67
120
159
67
121
160
68
122
160
68
122
161
69
123
161
69
123
161
69
123
162
69
123
162
70
124
162
70
124
162
71
125
162
72
125
163
72
126
163
72
126
163
72
126
164
73
126
164
73
127
165
74
128
165
74
128
165
75
129
165
75
129
165
75
129
165
76
129
166
76
130
166
77
130
167
77
131
167
78
131
167
78
132
168
78
132
168
78
132
168
79
132
168
79
133
168
80
134
169
80
134
169
81
135
169
81
135
170
81
135
170
82
135
171
82
136
171
83
136
171
83
137
171
84
137
171
84
138
172
84
138
172
84
138
172
85
138
173
85
139
173
86
140
173
87
140
174
87
141
174
87
141
174
87
141
174
88
141
174
88
142
175
89
142
175
89
143
176
90
143
176
90
144
176
90
144
177
91
144
177
91
144
177
92
145
177
92
146
177
93
146
178
93
147
178
93
147
178
93
147
179
94
147
179
94
148
180
95
148
180
95
149
180
96
149
180
96
150
180
96
150
180
97
150
181
97
150
181
98
151
182
98
152
182
99
152
182
99
153
183
99
153
183
99
153
183
100
153
183
101
154
183
101
154
184
102
155
184
102
155
184
102
156
185
102
156
185
103
156
186
103
156
186
104
157
186
104
158
186
105
158
186
105
159
187
105
159
187
106
159
187
106
159
188
107
160
188
107
160
188
108
161
189
108
161
189
108
162
189
108
162
189
109
162
189
109
162
190
110
163
190
111
164
191
