P3
# Created by GIMP version 2.10.38 PNM plug-in
16 16
255
191
1
1
191
3
1
191
6
1
191
9
1
191
12
1
191
19
1
191
22
1
191
25
1
191
28
1
191
32
1
191
38
1
191
41
1
191
45
1
191
48
1
191
51
1
191
57
1
191
60
1
191
63
1
191
66
1
191
70
1
191
76
1
191
79
1
191
83
1
191
86
1
191
89
1
191
96
1
191
99
1
191
102
1
191
105
1
191
108
1
191
114
1
191
117
1
191
121
1
191
124
1
191
127
1
191
134
1
191
137
1
191
140
1
191
143
1
191
147
1
191
153
1
191
156
1
191
159
1
191
162
1
191
165
1
191
172
1
191
175
1
191
178
1
191
181
1
191
185
1
191
191
1
188
191
1
185
191
1
181
191
1
178
191
1
172
191
1
168
191
1
165
191
1
162
191
1
159
191
1
153
191
1
150
191
1
147
191
1
143
191
1
140
191
1
134
191
1
130
191
1
127
191
1
124
191
1
121
191
1
114
191
1
111
191
1
108
191
1
105
191
1
102
191
1
96
191
1
92
191
1
89
191
1
86
191
1
82
191
1
76
191
1
73
191
1
70
191
1
66
191
1
63
191
1
57
191
1
54
191
1
51
191
1
48
191
1
45
191
1
38
191
1
35
191
1
31
191
1
28
191
1
25
191
1
19
191
1
15
191
1
12
191
1
9
191
1
6
191
1
1
191
1
1
191
3
1
191
6
1
191
9
1
191
12
1
191
18
1
191
22
1
191
25
1
191
28
1
191
32
1
191
38
1
191
41
1
191
45
1
191
48
1
191
51
1
191
57
1
191
60
1
191
63
1
191
66
1
191
69
1
191
76
1
191
79
1
191
83
1
191
86
1
191
89
1
191
96
1
191
99
1
191
102
1
191
105
1
191
108
1
191
114
1
191
117
1
191
121
1
191
124
1
191
127
1
191
134
1
191
137
1
191
140
1
191
143
1
191
147
1
191
153
1
191
156
1
191
159
1
191
162
1
191
165
1
191
172
1
191
175
1
191
178
1
191
181
1
191
185
1
191
191
1
188
191
1
185
191
1
181
191
1
178
191
1
172
191
1
168
191
1
165
191
1
162
191
1
159
191
1
153
191
1
150
191
1
147
191
1
143
191
1
140
191
1
134
191
1
130
191
1
127
191
1
124
191
1
121
191
1
114
191
1
111
191
1
108
191
1
105
191
1
102
191
1
96
191
1
92
191
1
89
191
1
86
191
1
83
191
1
76
191
1
73
191
1
69
191
1
66
191
1
63
191
1
57
191
1
54
191
1
51
191
1
48
191
1
45
191
1
38
191
1
35
191
1
32
191
1
28
191
1
25
191
1
18
191
1
15
191
1
12
191
1
9
191
1
6
191
1
1
191
3
1
191
6
1
191
9
1
191
12
1
191
18
1
191
22
1
191
25
1
191
28
1
191
31
1
191
38
1
191
41
1
191
44
1
191
48
1
191
51
1
191
57
1
191
60
1
191
63
1
191
66
1
191
70
1
191
76
1
191
79
1
191
83
1
191
86
1
191
89
1
191
96
1
191
99
1
191
102
1
191
105
1
191
108
1
191
114
1
191
117
1
191
120
1
191
124
1
191
127
1
191
133
1
191
137
1
191
140
1
191
143
1
191
147
1
191
153
1
191
156
1
191
159
1
191
162
1
191
165
1
191
172
1
191
175
1
191
178
1
191
181
1
191
185
1
191
191
1
191
191
1
188
191
1
185
191
1
181
191
1
178
191
1
172
